<svg height="480pt" viewBox="0 0 480 480" width="480pt" xmlns="http://www.w3.org/2000/svg"><path d="m88 200v-96h-80v368h464v-80h-192c-106.039062 0-192-85.960938-192-192zm0 0" fill="#cff09e"/><path d="m8 8h464v96h-464zm0 0" fill="#a8dba8"/><path d="m240 40h200v32h-200zm0 0" fill="#79bd9a"/><path d="m72 56c0 8.835938-7.164062 16-16 16s-16-7.164062-16-16 7.164062-16 16-16 16 7.164062 16 16zm0 0" fill="#cff09e"/><path d="m136 56c0 8.835938-7.164062 16-16 16s-16-7.164062-16-16 7.164062-16 16-16 16 7.164062 16 16zm0 0" fill="#cff09e"/><path d="m200 56c0 8.835938-7.164062 16-16 16s-16-7.164062-16-16 7.164062-16 16-16 16 7.164062 16 16zm0 0" fill="#cff09e"/><path d="m93.28125 367.359375 33.917969-33.917969-22.640625-22.640625-56.558594 56.558594 56.558594 56.5625 22.640625-22.640625zm0 0" fill="#a8dba8"/><path d="m274.71875 367.359375-33.917969-33.917969 22.640625-22.640625 56.558594 56.558594-56.558594 56.5625-22.640625-22.640625zm0 0" fill="#a8dba8"/><path d="m176.503906 292.660156 31.511719 5.558594-25.003906 141.8125-31.515625-5.558594zm0 0" fill="#a8dba8"/><path d="m408 216c.082031-1.492188.082031-2.988281 0-4.480469l25.519531-14.71875-24-41.601562-25.519531 14.722656c-2.53125-1.722656-5.207031-3.222656-8-4.480469v-29.441406h-48v29.441406c-2.792969 1.257813-5.46875 2.757813-8 4.480469l-25.28125-14.722656-24 41.601562 25.28125 14.71875c-.320312 2.980469-.320312 5.980469 0 8.960938l-25.28125 14.71875 24 41.601562 25.28125-14.722656c2.53125 1.722656 5.207031 3.222656 8 4.480469v29.441406h48v-29.441406c2.792969-1.257813 5.46875-2.757813 8-4.480469l25.519531 14.722656 24-41.601562-25.519531-14.71875c.082031-1.492188.082031-2.988281 0-4.480469zm-56 24c-13.253906 0-24-10.746094-24-24s10.746094-24 24-24 24 10.746094 24 24-10.746094 24-24 24zm0 0" fill="#79bd9a"/><g fill="#3b8686"><path d="m440 192.800781-24-41.601562c-1.074219-1.824219-2.832031-3.148438-4.878906-3.679688-2.054688-.550781-4.242188-.261719-6.082032.800781l-21.039062 12.238282v-24.558594c0-4.417969-3.582031-8-8-8h-48c-4.417969 0-8 3.582031-8 8v24.558594l-21.28125-12.238282c-1.839844-1.0625-4.027344-1.351562-6.078125-.800781-2.050781.53125-3.804687 1.855469-4.878906 3.679688l-24 41.601562c-2.171875 3.824219-.851563 8.683594 2.957031 10.878907l21.28125 12.320312-21.28125 12.320312c-3.722656 2.277344-4.929688 7.117188-2.71875 10.878907l24 41.601562c1.074219 1.824219 2.832031 3.148438 4.878906 3.679688 2.054688.550781 4.242188.261719 6.082032-.800781l21.039062-12.238282v24.558594c0 4.417969 3.582031 8 8 8h48c4.417969 0 8-3.582031 8-8v-24.558594l21.28125 12.238282c1.839844 1.0625 4.027344 1.351562 6.078125.800781 1.960937-.589844 3.621094-1.90625 4.640625-3.679688l24-41.601562c2.171875-3.824219.847656-8.683594-2.960938-10.878907l-21.039062-12.320312 21.28125-12.320312c3.722656-2.277344 4.929688-7.117188 2.71875-10.878907zm-36.480469 11.757813c-2.695312 1.542968-4.253906 4.507812-4 7.601562.347657 2.65625.347657 5.34375 0 8-.253906 3.09375 1.304688 6.058594 4 7.601563l18.558594 10.71875-16 27.679687-18.558594-10.71875c-2.59375-1.621094-5.886719-1.621094-8.480469 0-2.140624 1.441406-4.386718 2.722656-6.71875 3.839844-2.777343 1.320312-4.550781 4.121094-4.558593 7.199219v21.519531h-31.761719v-21.441406c-.007812-3.074219-1.78125-5.875-4.558594-7.199219-2.332031-1.113281-4.578125-2.398437-6.722656-3.839844-2.59375-1.621093-5.882812-1.621093-8.480469 0l-18.558593 10.71875-16-27.679687 18.558593-10.71875c2.695313-1.542969 4.257813-4.503906 4-7.601563-.347656-2.652343-.347656-5.34375 0-8 .257813-3.09375-1.304687-6.054687-4-7.597656l-18.558593-10.71875 16-27.683594 18.558593 10.722657c2.671875 1.5 5.964844 1.34375 8.480469-.402344 2.144531-1.441406 4.390625-2.722656 6.722656-3.839844 2.777344-1.320312 4.550782-4.121094 4.558594-7.199219v-21.519531h32v21.441406c.007812 3.074219 1.78125 5.875 4.558594 7.199219 2.332031 1.113281 4.578125 2.398437 6.722656 3.839844 2.515625 1.746093 5.808594 1.902343 8.480469.398437l18.558593-10.71875 16 27.679688zm0 0"/><path d="m352 184c-17.671875 0-32 14.328125-32 32s14.328125 32 32 32 32-14.328125 32-32-14.328125-32-32-32zm0 48c-8.835938 0-16-7.164062-16-16s7.164062-16 16-16 16 7.164062 16 16-7.164062 16-16 16zm0 0"/><path d="m132.878906 328-22.640625-22.640625c-1.507812-1.496094-3.550781-2.332031-5.679687-2.320313-2.117188.03125-4.144532.859376-5.679688 2.320313l-56.558594 56.320313c-1.515624 1.503906-2.367187 3.546874-2.367187 5.679687s.851563 4.179687 2.367187 5.679687l56.558594 56.5625c1.511719 1.496094 3.554688 2.332032 5.679688 2.320313 2.128906.011719 4.171875-.824219 5.679687-2.320313l22.640625-22.640624c3.101563-3.121094 3.101563-8.160157 0-11.28125l-28.320312-28.320313 28.320312-28.238281c3-3.101563 3-8.019532 0-11.121094zm-44.878906 33.679688c-1.515625 1.503906-2.367188 3.546874-2.367188 5.679687s.851563 4.179687 2.367188 5.679687l28.320312 28.242188-11.359374 11.359375-45.679688-45.28125 45.277344-45.28125 11.363281 11.363281zm0 0"/><path d="m269.121094 305.121094c-1.503906-1.515625-3.546875-2.367188-5.679688-2.367188-2.132812 0-4.179687.851563-5.679687 2.367188l-22.640625 22.878906c-1.515625 1.503906-2.367188 3.546875-2.367188 5.679688 0 2.132812.851563 4.179687 2.367188 5.679687l28.320312 28.242187-28.320312 28.320313c-3.101563 3.117187-3.101563 8.15625 0 11.277344l22.640625 22.640625c1.507812 1.496094 3.550781 2.332031 5.679687 2.320312 2.125.011719 4.167969-.824218 5.679688-2.320312l56.558594-56.558594c1.515624-1.503906 2.367187-3.546875 2.367187-5.679688 0-2.132812-.851563-4.179687-2.367187-5.679687zm-5.679688 107.519531-11.363281-11.359375 28.320313-28.242188c1.515624-1.5 2.367187-3.546874 2.367187-5.679687s-.851563-4.175781-2.367187-5.679687l-28.320313-28.238282 11.363281-11.363281 45.277344 45.28125zm0 0"/><path d="m209.359375 290.320312-31.519531-5.601562c-4.351563-.722656-8.464844 2.210938-9.199219 6.5625l-24.640625 141.757812c-.773438 4.351563 2.125 8.507813 6.480469 9.28125l31.121093 5.679688c.476563.078125.960938.078125 1.4375 0 3.9375.058594 7.332032-2.757812 8-6.640625l24.960938-141.757813c.386719-2.09375-.074219-4.25-1.28125-6-1.261719-1.78125-3.199219-2.964843-5.359375-3.28125zm-32.878906 140.398438-16-2.796875 22.238281-126 16 2.71875zm0 0"/><path d="m56 192c4.417969 0 8-3.582031 8-8v-32c0-4.417969-3.582031-8-8-8s-8 3.582031-8 8v32c0 4.417969 3.582031 8 8 8zm0 0"/><path d="m104 192c13.253906 0 24-10.746094 24-24s-10.746094-24-24-24-24 10.746094-24 24 10.746094 24 24 24zm0-32c4.417969 0 8 3.582031 8 8s-3.582031 8-8 8-8-3.582031-8-8 3.582031-8 8-8zm0 0"/><path d="m152 192c4.417969 0 8-3.582031 8-8v-32c0-4.417969-3.582031-8-8-8s-8 3.582031-8 8v32c0 4.417969 3.582031 8 8 8zm0 0"/><path d="m200 144c-13.253906 0-24 10.746094-24 24s10.746094 24 24 24 24-10.746094 24-24-10.746094-24-24-24zm0 32c-4.417969 0-8-3.582031-8-8s3.582031-8 8-8 8 3.582031 8 8-3.582031 8-8 8zm0 0"/><path d="m56 256c4.417969 0 8-3.582031 8-8v-32c0-4.417969-3.582031-8-8-8s-8 3.582031-8 8v32c0 4.417969 3.582031 8 8 8zm0 0"/><path d="m216 208c-4.417969 0-8 3.582031-8 8v32c0 4.417969 3.582031 8 8 8s8-3.582031 8-8v-32c0-4.417969-3.582031-8-8-8zm0 0"/><path d="m168 256c13.253906 0 24-10.746094 24-24s-10.746094-24-24-24-24 10.746094-24 24 10.746094 24 24 24zm0-32c4.417969 0 8 3.582031 8 8s-3.582031 8-8 8-8-3.582031-8-8 3.582031-8 8-8zm0 0"/><path d="m472 0h-464c-4.417969 0-8 3.582031-8 8v464c0 4.417969 3.582031 8 8 8h464c4.417969 0 8-3.582031 8-8v-464c0-4.417969-3.582031-8-8-8zm-456 16h448v80h-448zm0 448v-352h448v352zm0 0"/><path d="m440 32h-200c-4.417969 0-8 3.582031-8 8v32c0 4.417969 3.582031 8 8 8h200c4.417969 0 8-3.582031 8-8v-32c0-4.417969-3.582031-8-8-8zm-8 32h-184v-16h184zm0 0"/><path d="m56 32c-13.253906 0-24 10.746094-24 24s10.746094 24 24 24 24-10.746094 24-24-10.746094-24-24-24zm0 32c-4.417969 0-8-3.582031-8-8s3.582031-8 8-8 8 3.582031 8 8-3.582031 8-8 8zm0 0"/><path d="m184 32c-13.253906 0-24 10.746094-24 24s10.746094 24 24 24 24-10.746094 24-24-10.746094-24-24-24zm0 32c-4.417969 0-8-3.582031-8-8s3.582031-8 8-8 8 3.582031 8 8-3.582031 8-8 8zm0 0"/><path d="m120 32c-13.253906 0-24 10.746094-24 24s10.746094 24 24 24 24-10.746094 24-24-10.746094-24-24-24zm0 32c-4.417969 0-8-3.582031-8-8s3.582031-8 8-8 8 3.582031 8 8-3.582031 8-8 8zm0 0"/><path d="m104 256c13.253906 0 24-10.746094 24-24s-10.746094-24-24-24-24 10.746094-24 24 10.746094 24 24 24zm0-32c4.417969 0 8 3.582031 8 8s-3.582031 8-8 8-8-3.582031-8-8 3.582031-8 8-8zm0 0"/></g></svg>