<?xml version="1.0" standalone="no"?>
<!DOCTYPE svg PUBLIC "-//W3C//DTD SVG 20010904//EN"
 "http://www.w3.org/TR/2001/REC-SVG-20010904/DTD/svg10.dtd">
<svg version="1.0" xmlns="http://www.w3.org/2000/svg"
 width="421.000000pt" height="450.000000pt" viewBox="0 0 421.000000 450.000000"
 preserveAspectRatio="xMidYMid meet">

<g transform="translate(0.000000,450.000000) scale(0.100000,-0.100000)"
fill="#000000" stroke="none">
<path d="M2055 4402 c-27 -16 -255 -147 -505 -292 -474 -274 -563 -325 -770
-445 -69 -40 -201 -116 -295 -170 -93 -55 -190 -110 -215 -124 -25 -14 -48
-30 -52 -35 -10 -14 -10 -2168 0 -2182 4 -6 68 -46 142 -89 143 -83 358 -207
450 -260 30 -17 333 -192 672 -388 340 -196 623 -357 629 -357 6 0 64 31 128
68 108 64 247 145 486 282 130 75 386 223 548 316 239 139 541 313 649 375
l78 44 -3 1099 -2 1098 -415 240 c-954 551 -1221 705 -1331 769 -63 38 -122
71 -130 73 -8 3 -36 -7 -64 -22z m255 -905 c0 -1 -9 -27 -20 -57 -21 -59 -26
-125 -10 -135 6 -3 10 -15 10 -26 0 -40 55 -135 107 -186 92 -91 200 -130 329
-120 80 6 150 40 175 85 17 30 35 12 19 -19 -39 -75 -160 -176 -195 -162 -7 2
-16 0 -20 -6 -8 -14 -182 -15 -190 -1 -4 6 -10 8 -15 5 -19 -12 -148 65 -193
114 -40 43 -60 72 -85 121 -22 45 -24 251 -3 290 30 55 91 120 91 97z m-359
-114 c-7 -16 -13 -30 -13 -33 -1 -3 -8 -20 -15 -39 -18 -42 -19 -186 -3 -255
12 -54 87 -206 101 -206 5 0 9 -6 9 -14 0 -18 133 -142 176 -165 17 -9 50 -26
73 -39 22 -12 41 -20 41 -16 0 4 7 1 15 -6 8 -7 15 -9 15 -5 0 4 6 2 14 -4 8
-6 37 -14 65 -18 28 -3 54 -10 57 -14 7 -12 134 -12 134 0 0 4 22 11 49 14 42
5 112 35 191 82 10 6 36 30 59 55 22 24 44 41 48 37 15 -16 -54 -132 -115
-194 -35 -35 -68 -63 -73 -63 -5 0 -18 -8 -29 -17 -10 -10 -51 -29 -92 -43
-65 -22 -89 -25 -223 -25 -147 0 -152 1 -235 34 -47 19 -87 37 -90 41 -3 3
-22 16 -42 28 -45 28 -188 178 -188 198 0 8 -4 14 -8 14 -11 0 -46 78 -69 155
-21 69 -25 238 -7 276 7 13 19 44 28 69 9 25 38 76 66 114 27 38 50 73 50 79
0 7 4 7 12 -1 9 -9 8 -18 -1 -39z m-443 -195 c-12 -40 -23 -77 -24 -83 0 -5
-4 -17 -8 -26 -8 -18 -3 -208 7 -249 25 -108 51 -173 125 -306 7 -14 52 -65
100 -116 114 -119 243 -204 382 -250 101 -34 112 -37 126 -31 8 3 21 0 28 -6
21 -17 277 -8 326 12 8 3 33 11 55 18 100 30 221 107 265 169 20 28 50 41 50
22 0 -9 -49 -88 -101 -164 -38 -55 -101 -118 -118 -118 -6 0 -14 -6 -18 -13
-7 -11 -63 -48 -131 -85 -32 -18 -142 -52 -167 -52 -12 0 -26 -5 -32 -11 -13
-13 -286 -6 -368 10 -33 6 -82 22 -110 35 -27 12 -61 28 -75 34 -160 74 -364
279 -431 432 -6 14 -17 39 -25 55 -61 131 -71 402 -21 545 13 37 78 144 106
172 9 9 30 35 46 56 17 22 31 35 33 31 2 -5 -7 -42 -20 -81z m89 -1304 c36
-22 55 -43 76 -83 37 -75 36 -141 -4 -268 -39 -123 -39 -117 -9 -117 23 -1 25
-5 23 -41 -1 -22 -6 -53 -12 -68 l-11 -29 -213 4 c-183 3 -217 6 -246 22 -106
57 -133 170 -84 346 51 186 167 274 350 267 70 -3 89 -8 130 -33z m2037 -51
c-10 -16 -85 -117 -168 -227 -127 -168 -152 -208 -166 -260 l-17 -61 -76 -3
c-87 -3 -84 -6 -65 77 10 45 8 59 -17 148 -15 54 -30 104 -33 111 -3 10 14 12
79 10 83 -3 84 -3 87 -30 2 -16 7 -28 12 -28 5 0 42 48 81 108 40 59 85 124
101 145 l30 37 85 0 85 0 -18 -27z m-985 -61 c58 -27 73 -64 68 -163 -7 -134
1 -129 -182 -129 l-155 0 0 -25 c0 -37 32 -45 172 -45 l121 0 -7 -50 c-12 -88
1 -82 -180 -78 -177 3 -206 12 -240 68 -31 54 -14 217 34 310 49 96 155 145
285 133 28 -3 65 -12 84 -21z m-1569 -9 c0 -16 -5 -45 -11 -65 l-10 -38 -71 0
-71 0 7 45 c10 78 18 85 91 85 64 0 65 0 65 -27z m860 10 c0 -10 -14 -87 -31
-171 -31 -147 -31 -153 -14 -172 14 -15 31 -20 74 -20 l56 0 40 188 41 187 67
3 c55 2 67 0 67 -13 0 -8 -14 -79 -31 -158 -17 -78 -39 -182 -49 -231 -11 -49
-23 -93 -29 -99 -5 -5 -71 -8 -158 -5 -125 3 -152 6 -177 23 -56 37 -69 117
-41 250 9 39 22 104 31 145 9 41 18 78 20 82 3 5 34 8 70 8 54 0 64 -3 64 -17z
m1218 11 c42 -9 68 -36 76 -79 4 -20 5 -39 3 -41 -2 -2 -71 -7 -153 -12 l-148
-7 -37 -180 -36 -180 -63 -3 c-35 -2 -67 1 -72 6 -4 4 3 59 17 123 14 63 37
170 51 239 15 69 28 128 31 133 5 8 287 10 331 1z m-2113 -154 c7 -12 -68
-365 -91 -430 -33 -89 -82 -120 -194 -120 -78 0 -77 -2 -57 75 12 44 17 50 43
53 16 2 35 9 42 15 17 14 40 58 46 88 22 121 71 315 80 321 17 11 124 10 131
-2z"/>
<path d="M1364 1766 c-63 -28 -108 -124 -109 -234 0 -58 3 -66 28 -88 27 -23
36 -25 115 -22 l86 3 13 45 c48 161 55 203 44 242 -19 62 -100 87 -177 54z"/>
<path d="M2465 1663 c-25 -6 -43 -21 -56 -45 -9 -17 -4 -18 76 -18 78 0 85 2
85 19 0 37 -49 58 -105 44z"/>
</g>
</svg>
